<svg xmlns="http://www.w3.org/2000/svg" viewBox="0 0 256 256">
  <circle cx="128" cy="128" r="120" fill-opacity="0" stroke="#13cdc6" stroke-linejoin="round" stroke-width="16" fill="#293340"/>
  <circle cx="128" cy="128" r="96" fill="#293340"/>
  <path d="M130.424 165.032a20 20 0 01-14.142 24.495l-8.842 2.373a20 20 0 01-24.495-14.142l-2.369-8.842a20 20 0 0114.142-24.5l8.842-2.369a20 20 0 0124.5 14.142z" fill="#818cf8" fill-rule="evenodd"/>
  <path d="M191.9 148.561a20 20 0 01-14.143 24.5l-8.842 2.369a20 20 0 01-24.494-14.142l-2.37-8.842a20 20 0 0114.142-24.5l8.842-2.369a20 20 0 0124.5 14.142z" fill="#f472b6" fill-rule="evenodd"/>
  <path d="M113.953 103.561a20 20 0 01-14.142 24.5l-8.842 2.369a20 20 0 01-24.495-14.142l-2.369-8.842a20 20 0 0114.142-24.5l8.842-2.369a20 20 0 0124.495 14.142z" fill="#34d399" fill-rule="evenodd"/>
  <path d="M175.424 87.09a20 20 0 01-14.142 24.495l-8.842 2.369a20 20 0 01-24.5-14.142l-2.369-8.842a20 20 0 0114.142-24.495l8.842-2.369a20 20 0 0124.5 14.142z" fill="#fbbf24" fill-rule="evenodd"/>
</svg>